<?xml version="1.0" encoding="UTF-8" standalone="no"?>
<!DOCTYPE svg PUBLIC "-//W3C//DTD SVG 1.1//EN" "http://www.w3.org/Graphics/SVG/1.1/DTD/svg11.dtd">
<svg version="1.1" xmlns="http://www.w3.org/2000/svg" xmlns:xlink="http://www.w3.org/1999/xlink" preserveAspectRatio="xMidYMid meet" viewBox="0 0 560.7 880" width="560.7" height="880"><defs><path d="M-27.65 122.64L531.9 250.85L560 128.21L0.45 0L-27.65 122.64Z" id="d19cOsaGTq"></path><path d="M-27.5 6.54L533.5 -121.99L561.6 0.65L0.6 129.18L-27.5 6.54Z" id="aHEbtV2a0"></path><path d="M-27.65 897.5L531.9 1025.71L560 903.07L0.45 774.86L-27.65 897.5Z" id="b7olz7Roi"></path><path d="M-27.65 380.53L531.9 508.74L560 386.09L0.45 257.89L-27.65 380.53Z" id="bvRpTErp2"></path><path d="M-26.65 263.95L561.53 129.18L589.63 251.83L1.45 386.59L-26.65 263.95Z" id="d3AbtzpEUM"></path><path d="M-26.77 637.94L532.78 766.14L560.88 643.5L1.33 515.3L-26.77 637.94Z" id="aRME5v1E"></path><path d="M-27.79 521.36L560.39 386.59L588.49 509.24L0.31 644L-27.79 521.36Z" id="gapYsys3a"></path><path d="M-26.65 778.77L561.53 644L589.63 766.64L1.45 901.41L-26.65 778.77Z" id="c1ASPhWAL4"></path></defs><g><g><g><use xlink:href="#d19cOsaGTq" opacity="1" fill="#353535" fill-opacity="1"></use></g><g><use xlink:href="#aHEbtV2a0" opacity="1" fill="#df26a5" fill-opacity="1"></use></g><g><use xlink:href="#b7olz7Roi" opacity="1" fill="#353535" fill-opacity="1"></use></g><g><use xlink:href="#bvRpTErp2" opacity="1" fill="#353535" fill-opacity="1"></use></g><g><use xlink:href="#d3AbtzpEUM" opacity="1" fill="#df26a5" fill-opacity="1"></use></g><g><use xlink:href="#aRME5v1E" opacity="1" fill="#353535" fill-opacity="1"></use></g><g><use xlink:href="#gapYsys3a" opacity="1" fill="#df26a5" fill-opacity="1"></use></g><g><use xlink:href="#c1ASPhWAL4" opacity="1" fill="#df26a5" fill-opacity="1"></use></g></g></g></svg>